# xmcd
# Track frame offsets:
# 150
# 23592
# 36610
# 52069
# 63470
# 82321
# 96772
# 113779
# 129163
# 143270
# 158559
# 170127
# 181621
# 192346
# 204640
# 217915
# 232862
# 247093
# 262897
# 273513
#
# Disc length: 3793 seconds
# Revision: 0
# Processed by: cddbd v1.5.1PL0 Copyright (c) Steve Scherf et al.
# Submitted via: VisiTrax 2.9.10.228 - For more info visit www.synapsa.com
#
DISCID=170ecf14
DTITLE=Various Artist - The Most Awesome Line Dancing Album Vol.9
DYEAR=2004
DGENRE=Country
TTITLE0=Chris Cagle - It Takes Two
TTITLE1=Susan Ashton - Come On Out Of The Rain
TTITLE2=Dierks Bentley - I Bought The Shoes
TTITLE3=Jameson Clark - Waitin On The Whiskey
TTITLE4=Keith Urban - Who Wouldnt Be Me
TTITLE5=Suzy Bogguss - Heartache
TTITLE6=Eddie Rabbitt - Go To Sleep Big Bertha
TTITLE7=Lacy J Dalton - Restless
TTITLE8=Wild Rose - Your One And Only
TTITLE9=Tanya Tucker - If It Dont Come Easy
TTITLE10=Glen Campbell - Once A Day
TTITLE11=Crystal Gayle - Never Ending Song of Love
TTITLE12=Lisa Brokop - Before He Kissed Me
TTITLE13=Dr. Hook - Makin' Love And Music
TTITLE14=Eddy Raven - Too Much Candy For A Dime
TTITLE15=Steven Wayne Horton - Nothin Shakin
TTITLE16=Steve Taylor - Im Ready For Love
TTITLE17=Shane Worley - Whats Goin On
TTITLE18=Marsha Britton - 2 Step Your Babys Blues Away
TTITLE19=Lori Johnson - My Baby Loves to Watch Me Dance
EXTD=
EXTT0=
EXTT1=
EXTT2=
EXTT3=
EXTT4=
EXTT5=
EXTT6=
EXTT7=
EXTT8=
EXTT9=
EXTT10=
EXTT11=
EXTT12=
EXTT13=
EXTT14=
EXTT15=
EXTT16=
EXTT17=
EXTT18=
EXTT19=
PLAYORDER=
